<svg overflow="hidden" xmlns="http://www.w3.org/2000/svg"><g transform="matrix(.76 0 0 .76 -1291.998093 -792.124374)"><path d="m2225 1375h100" fill="none" stroke="#3b4449" stroke-linecap="round" stroke-width="2"/><path d="m2225 1372h100v10h-100z" fill="#fff" opacity="0" r="0" stroke="#000"/><path d="m2450 1300h-25" fill="none" stroke="#3b4449" stroke-linecap="round" stroke-width="2"/><path d="m2425 1297h25v10h-25z" fill="#fff" opacity="0" r="0" stroke="#000"/><circle cx="2225" cy="1375" fill="#999" opacity="0" r="5" stroke="#3b4449" stroke-width="2"/><circle cx="2325" cy="1375" fill="#999" opacity="0" r="5" stroke="#3b4449" stroke-width="2"/><circle cx="2450" cy="1300" fill="#999" opacity="0" r="5" stroke="#3b4449" stroke-width="2"/><circle cx="2425" cy="1300" fill="#999" opacity="0" r="5" stroke="#3b4449" stroke-width="2"/><path d="m2225 1625v75" fill="none" stroke="#3b4449" stroke-linecap="round" stroke-width="2"/><path d="m2220 1625h10v75h-10z" fill="#fff" opacity="0" r="0" stroke="#000"/><circle cx="2225" cy="1625" fill="#999" opacity="0" r="5" stroke="#3b4449" stroke-width="2"/><circle cx="2225" cy="1700" fill="#999" opacity="0" r="5" stroke="#3b4449" stroke-width="2"/><path d="m2975 1325v25" fill="none" stroke="#3b4449" stroke-linecap="round" stroke-width="2"/><path d="m2970 1325h10v25h-10z" fill="#fff" opacity="0" r="0" stroke="#000"/><path d="m2975 1575v-25" fill="none" stroke="#3b4449" stroke-linecap="round" stroke-width="2"/><path d="m2970 1550h10v25h-10z" fill="#fff" opacity="0" r="0" stroke="#000"/><path d="m2525 1700h-300" fill="none" stroke="#3b4449" stroke-linecap="round" stroke-width="2"/><path d="m2225 1697h300v10h-300z" fill="#fff" opacity="0" r="0" stroke="#000"/><circle cx="2525" cy="1700" fill="#999" opacity="0" r="5" stroke="#3b4449" stroke-width="2"/><circle cx="2225" cy="1700" fill="#999" opacity="0" r="5" stroke="#3b4449" stroke-width="2"/><path d="m25 20v-20" fill="none" stroke="#3b4449" stroke-linecap="round" stroke-miterlimit="6" stroke-width="2" transform="translate(2300 1725)"/><path d="m5 20 20 20 20-20z" style="fill:#fff;stroke:#3b4449;stroke-width:2;stroke-linecap:round;stroke-linejoin:round;stroke-miterlimit:6" transform="translate(2300 1725)"/><path d="m5.5 5.5h39v29h-39z" fill="#fff" opacity="0" stroke="#fff" transform="translate(2300 1725)"/><circle cx="2325" cy="1725" fill="#999" opacity="0" r="5" stroke="#3b4449" stroke-width="2"/><path d="m2325 1725v-25" fill="none" stroke="#3b4449" stroke-linecap="round" stroke-width="2"/><path d="m2320 1700h10v25h-10z" fill="#fff" opacity="0" r="0" stroke="#000"/><path d="m2325 1700v-75" fill="none" stroke="#3b4449" stroke-linecap="round" stroke-width="2"/><path d="m2320 1625h10v75h-10z" fill="#fff" opacity="0" r="0" stroke="#000"/><path d="m2700 1525h25" fill="none" stroke="#3b4449" stroke-linecap="round" stroke-width="2"/><path d="m2700 1522h25v10h-25z" fill="#fff" opacity="0" r="0" stroke="#000"/><path d="m25 20v-20" fill="none" stroke="#3b4449" stroke-linecap="round" stroke-miterlimit="6" stroke-width="2" transform="translate(2275 1250)"/><path d="m5 20 20 20 20-20z" style="fill:#fff;stroke:#3b4449;stroke-width:2;stroke-linecap:round;stroke-linejoin:round;stroke-miterlimit:6" transform="translate(2275 1250)"/><path d="m5.5 5.5h39v29h-39z" fill="#fff" opacity="0" stroke="#fff" transform="translate(2275 1250)"/><circle cx="2300" cy="1250" fill="#999" opacity="0" r="5" stroke="#3b4449" stroke-width="2"/><path d="m2625 1275v-125" fill="none" stroke="#3b4449" stroke-linecap="round" stroke-width="2"/><path d="m2620 1150h10v125h-10z" fill="#fff" opacity="0" r="0" stroke="#000"/><circle cx="2625" cy="1275" fill="#999" opacity="0" r="5" stroke="#3b4449" stroke-width="2"/><circle cx="2625" cy="1150" fill="#999" opacity="0" r="5" stroke="#3b4449" stroke-width="2"/><path d="m2700 1425h25" fill="none" stroke="#3b4449" stroke-linecap="round" stroke-width="2"/><path d="m2700 1422h25v10h-25z" fill="#fff" opacity="0" r="0" stroke="#000"/><circle cx="2700" cy="1425" fill="#999" opacity="0" r="5" stroke="#3b4449" stroke-width="2"/><circle cx="2725" cy="1425" fill="#999" opacity="0" r="5" stroke="#3b4449" stroke-width="2"/><path d="m2975 1450v25" fill="none" stroke="#3b4449" stroke-linecap="round" stroke-width="2"/><path d="m2970 1450h10v25h-10z" fill="#fff" opacity="0" r="0" stroke="#000"/><circle cx="2975" cy="1325" fill="#999" opacity="0" r="5" stroke="#3b4449" stroke-width="2"/><circle cx="2975" cy="1350" fill="#999" opacity="0" r="5" stroke="#3b4449" stroke-width="2"/><circle cx="2975" cy="1575" fill="#999" opacity="0" r="5" stroke="#3b4449" stroke-width="2"/><circle cx="2975" cy="1550" fill="#999" opacity="0" r="5" stroke="#3b4449" stroke-width="2"/><circle cx="2975" cy="1450" fill="#999" opacity="0" r="5" stroke="#3b4449" stroke-width="2"/><circle cx="2975" cy="1475" fill="#999" opacity="0" r="5" stroke="#3b4449" stroke-width="2"/><path d="m2850 1525h-25" fill="none" stroke="#3b4449" stroke-linecap="round" stroke-width="2"/><path d="m2825 1522h25v10h-25z" fill="#fff" opacity="0" r="0" stroke="#000"/><circle cx="2850" cy="1525" fill="#999" opacity="0" r="5" stroke="#3b4449" stroke-width="2"/><circle cx="2825" cy="1525" fill="#999" opacity="0" r="5" stroke="#3b4449" stroke-width="2"/><circle cx="2700" cy="1525" fill="#999" opacity="0" r="5" stroke="#3b4449" stroke-width="2"/><circle cx="2725" cy="1525" fill="#999" opacity="0" r="5" stroke="#3b4449" stroke-width="2"/><circle cx="2450" cy="1300" fill="#3b4449" r="3" stroke="#3b4449"/><path d="m2550 1350h-25" fill="none" stroke="#3b4449" stroke-linecap="round" stroke-width="2"/><path d="m2525 1347h25v10h-25z" fill="#fff" opacity="0" r="0" stroke="#000"/><circle cx="2550" cy="1350" fill="#999" opacity="0" r="5" stroke="#3b4449" stroke-width="2"/><circle cx="2525" cy="1350" fill="#999" opacity="0" r="5" stroke="#3b4449" stroke-width="2"/><path d="m25 21.87499v-21.87499" fill="none" stroke="#3b4449" stroke-linecap="round" stroke-miterlimit="6" stroke-width="2" transform="translate(2500 1600)"/><path d="m25 78.12502v21.87498" fill="none" stroke="#3b4449" stroke-linecap="round" stroke-miterlimit="6" stroke-width="2" transform="translate(2500 1600)"/><path d="m25 21.87499-10.937496 4.6875 21.874991 9.37499-21.874991 9.375 21.874991 9.37504-21.874991 9.375 21.874991 9.375-10.937495 4.6875" fill="none" stroke="#3b4449" stroke-linecap="round" stroke-miterlimit="6" stroke-width="2" transform="translate(2500 1600)"/><path d="m12 20h26v60h-26z" fill="#fff" opacity="0" stroke="#fff" transform="translate(2500 1600)"/><text fill="#3b4449" font="10px &quot;Arial&quot;" font-family="Arial" font-size="16" font-weight="bold" transform="translate(2543.75 1650)"><tspan dy="-2.4">R3</tspan><tspan dy="19.2" x="0">6.8 kΩ</tspan></text><circle cx="2525" cy="1600" fill="#999" opacity="0" r="5" stroke="#3b4449" stroke-width="2"/><circle cx="2525" cy="1700" fill="#999" opacity="0" r="5" stroke="#3b4449" stroke-width="2"/><path d="m25 20v-20" fill="none" stroke="#3b4449" stroke-linecap="round" stroke-miterlimit="6" stroke-width="2" transform="translate(2950 1575)"/><path d="m5 20 20 20 20-20z" style="fill:#fff;stroke:#3b4449;stroke-width:2;stroke-linecap:round;stroke-linejoin:round;stroke-miterlimit:6" transform="translate(2950 1575)"/><path d="m5.5 5.5h39v29h-39z" fill="#fff" opacity="0" stroke="#fff" transform="translate(2950 1575)"/><circle cx="2975" cy="1575" fill="#999" opacity="0" r="5" stroke="#3b4449" stroke-width="2"/><circle cx="2325" cy="1700" fill="#3b4449" r="3" stroke="#3b4449"/><circle cx="2325" cy="1700" fill="#999" opacity="0" r="5" stroke="#3b4449" stroke-width="2"/><circle cx="2325" cy="1625" fill="#999" opacity="0" r="5" stroke="#3b4449" stroke-width="2"/><circle cx="2325" cy="1725" fill="#999" opacity="0" r="5" stroke="#3b4449" stroke-width="2"/><circle cx="2325" cy="1700" fill="#999" opacity="0" r="5" stroke="#3b4449" stroke-width="2"/><path d="m2325 1375v-75" fill="none" stroke="#3b4449" stroke-linecap="round" stroke-width="2"/><path d="m2320 1300h10v75h-10z" fill="#fff" opacity="0" r="0" stroke="#000"/><circle cx="2325" cy="1375" fill="#999" opacity="0" r="5" stroke="#3b4449" stroke-width="2"/><circle cx="2325" cy="1300" fill="#999" opacity="0" r="5" stroke="#3b4449" stroke-width="2"/><path d="m2450 1300v50" fill="none" stroke="#3b4449" stroke-linecap="round" stroke-width="2"/><path d="m2445 1300h10v50h-10z" fill="#fff" opacity="0" r="0" stroke="#000"/><circle cx="2450" cy="1300" fill="#999" opacity="0" r="5" stroke="#3b4449" stroke-width="2"/><circle cx="2450" cy="1350" fill="#999" opacity="0" r="5" stroke="#3b4449" stroke-width="2"/><path d="m2700 1475h-175" fill="none" stroke="#3b4449" stroke-linecap="round" stroke-width="2"/><path d="m2525 1472h175v10h-175z" fill="#fff" opacity="0" r="0" stroke="#000"/><circle cx="2700" cy="1475" fill="#3b4449" r="3" stroke="#3b4449"/><circle cx="2700" cy="1475" fill="#999" opacity="0" r="5" stroke="#3b4449" stroke-width="2"/><circle cx="2525" cy="1475" fill="#3b4449" r="3" stroke="#3b4449"/><circle cx="2525" cy="1475" fill="#999" opacity="0" r="5" stroke="#3b4449" stroke-width="2"/><path d="m2325 1475v75" fill="none" stroke="#3b4449" stroke-linecap="round" stroke-width="2"/><path d="m2320 1475h10v75h-10z" fill="#fff" opacity="0" r="0" stroke="#000"/><circle cx="2325" cy="1475" fill="#999" opacity="0" r="5" stroke="#3b4449" stroke-width="2"/><circle cx="2325" cy="1550" fill="#999" opacity="0" r="5" stroke="#3b4449" stroke-width="2"/><path d="m2625 1400v-25" fill="none" stroke="#3b4449" stroke-linecap="round" stroke-width="2"/><path d="m2620 1375h10v25h-10z" fill="#fff" opacity="0" r="0" stroke="#000"/><circle cx="2625" cy="1400" fill="#999" opacity="0" r="5" stroke="#3b4449" stroke-width="2"/><circle cx="2625" cy="1375" fill="#999" opacity="0" r="5" stroke="#3b4449" stroke-width="2"/><path d="m25 21.87499v-21.87499" fill="none" stroke="#3b4449" stroke-linecap="round" stroke-miterlimit="6" stroke-width="2" transform="translate(2200 1375)"/><path d="m25 78.12502v21.87498" fill="none" stroke="#3b4449" stroke-linecap="round" stroke-miterlimit="6" stroke-width="2" transform="translate(2200 1375)"/><path d="m25 21.87499-10.937496 4.6875 21.874991 9.37499-21.874991 9.375 21.874991 9.37504-21.874991 9.375 21.874991 9.375-10.937495 4.6875" fill="none" stroke="#3b4449" stroke-linecap="round" stroke-miterlimit="6" stroke-width="2" transform="translate(2200 1375)"/><path d="m12 20h26v60h-26z" fill="#fff" opacity="0" stroke="#fff" transform="translate(2200 1375)"/><text fill="#3b4449" font="10px &quot;Arial&quot;" font-family="Arial" font-size="16" font-weight="bold" transform="translate(2243.75 1425)"><tspan dy="-2.4">R4</tspan><tspan dy="19.2" x="0">220 Ω</tspan></text><circle cx="2225" cy="1375" fill="#999" opacity="0" r="5" stroke="#3b4449" stroke-width="2"/><circle cx="2225" cy="1475" fill="#999" opacity="0" r="5" stroke="#3b4449" stroke-width="2"/><path d="m2450 1450v250" fill="none" stroke="#3b4449" stroke-linecap="round" stroke-width="2"/><path d="m2445 1450h10v250h-10z" fill="#fff" opacity="0" r="0" stroke="#000"/><circle cx="2450" cy="1450" fill="#999" opacity="0" r="5" stroke="#3b4449" stroke-width="2"/><circle cx="2450" cy="1700" fill="#3b4449" r="3" stroke="#3b4449"/><circle cx="2450" cy="1700" fill="#999" opacity="0" r="5" stroke="#3b4449" stroke-width="2"/><path d="m2525 1350v250" fill="none" stroke="#3b4449" stroke-linecap="round" stroke-width="2"/><path d="m2520 1350h10v250h-10z" fill="#fff" opacity="0" r="0" stroke="#000"/><circle cx="2525" cy="1350" fill="#999" opacity="0" r="5" stroke="#3b4449" stroke-width="2"/><circle cx="2525" cy="1600" fill="#999" opacity="0" r="5" stroke="#3b4449" stroke-width="2"/><path d="m25 20v-20" fill="none" stroke="#3b4449" stroke-linecap="round" stroke-miterlimit="6" stroke-width="2" transform="translate(2600 1400)"/><path d="m5 20 20 20 20-20z" style="fill:#fff;stroke:#3b4449;stroke-width:2;stroke-linecap:round;stroke-linejoin:round;stroke-miterlimit:6" transform="translate(2600 1400)"/><path d="m5.5 5.5h39v29h-39z" fill="#fff" opacity="0" stroke="#fff" transform="translate(2600 1400)"/><circle cx="2625" cy="1400" fill="#999" opacity="0" r="5" stroke="#3b4449" stroke-width="2"/><path d="m2700 1325h275" fill="none" stroke="#3b4449" stroke-linecap="round" stroke-width="2"/><path d="m2700 1322h275v10h-275z" fill="#fff" opacity="0" r="0" stroke="#000"/><circle cx="2700" cy="1325" fill="#999" opacity="0" r="5" stroke="#3b4449" stroke-width="2"/><circle cx="2975" cy="1325" fill="#999" opacity="0" r="5" stroke="#3b4449" stroke-width="2"/><g transform="translate(2950 1475)"><path d="m10.93749 25 14.06251 25 14.06251-25" fill="#3b4449"/><path d="m25 25v-25" fill="none" stroke="#3b4449" stroke-linecap="round" stroke-miterlimit="6" stroke-width="2"/><path d="m25 50v25" fill="none" stroke="#3b4449" stroke-linecap="round" stroke-miterlimit="6" stroke-width="2"/><path d="m10.93749 50h28.12502" fill="none" stroke="#3b4449" stroke-linecap="round" stroke-miterlimit="6" stroke-width="2"/><path d="m11.930008 15.430008h59.139987v44.139984h-59.139987z" fill="#fff" opacity="0" stroke="#fff" stroke-width=".860016"/><path d="m54.17498 60.82702c8.287497 2.7625 9.943746 4.4188 19.887492 11.048-6.629164-9.9438-8.285413-11.6-11.047912-19.8875-2.210416 4.4187-4.420832 6.6292-8.83958 8.8395" fill="#3b4449"/><path d="m49.062482 46.87502 12.499994 12.5" fill="none" stroke="#3b4449" stroke-linecap="round" stroke-miterlimit="6" stroke-width="2"/><path d="m54.17498 42.07702c8.287497 2.7625 9.943746 4.4188 19.887492 11.048-6.629164-9.9438-8.285413-11.6-11.047912-19.8875-2.210416 4.4187-4.420832 6.6292-8.83958 8.8395" fill="#3b4449"/><path d="m49.062482 28.12502 12.499994 12.5" fill="none" stroke="#3b4449" stroke-linecap="round" stroke-miterlimit="6" stroke-width="2"/></g><text style="font:10px &quot;Arial&quot;;fill:#3b4449;text-anchor:end;font-weight:bold;font-size:16;font-family:Arial" transform="translate(2956.25 1512.5)"><tspan dy="-2.4">D3</tspan><tspan dy="19.2" x="0">LTL-307EE</tspan></text><circle cx="2975" cy="1475" fill="#999" opacity="0" r="5" stroke="#3b4449" stroke-width="2"/><circle cx="2975" cy="1550" fill="#999" opacity="0" r="5" stroke="#3b4449" stroke-width="2"/><path d="m25 21.87499v-21.87499" fill="none" stroke="#3b4449" stroke-linecap="round" stroke-miterlimit="6" stroke-width="2" transform="translate(2950 1350)"/><path d="m25 78.12502v21.87498" fill="none" stroke="#3b4449" stroke-linecap="round" stroke-miterlimit="6" stroke-width="2" transform="translate(2950 1350)"/><path d="m25 21.87499-10.937496 4.6875 21.874991 9.37499-21.874991 9.375 21.874991 9.37504-21.874991 9.375 21.874991 9.375-10.937495 4.6875" fill="none" stroke="#3b4449" stroke-linecap="round" stroke-miterlimit="6" stroke-width="2" transform="translate(2950 1350)"/><path d="m12 20h26v60h-26z" fill="#fff" opacity="0" stroke="#fff" transform="translate(2950 1350)"/><text fill="#3b4449" font="10px &quot;Arial&quot;" font-family="Arial" font-size="16" font-weight="bold" transform="translate(2993.75 1400)"><tspan dy="-2.4">R6</tspan><tspan dy="19.2" x="0">220 Ω</tspan></text><circle cx="2975" cy="1350" fill="#999" opacity="0" r="5" stroke="#3b4449" stroke-width="2"/><circle cx="2975" cy="1450" fill="#999" opacity="0" r="5" stroke="#3b4449" stroke-width="2"/><path d="m2700 1525v-100" fill="none" stroke="#3b4449" stroke-linecap="round" stroke-width="2"/><path d="m2695 1425h10v100h-10z" fill="#fff" opacity="0" r="0" stroke="#000"/><circle cx="2700" cy="1525" fill="#999" opacity="0" r="5" stroke="#3b4449" stroke-width="2"/><circle cx="2700" cy="1425" fill="#999" opacity="0" r="5" stroke="#3b4449" stroke-width="2"/><path d="m25 21.87499v-21.87499" fill="none" stroke="#3b4449" stroke-linecap="round" stroke-miterlimit="6" stroke-width="2" transform="matrix(0 1 -1 0 2825 1400)"/><path d="m25 78.12502v21.87498" fill="none" stroke="#3b4449" stroke-linecap="round" stroke-miterlimit="6" stroke-width="2" transform="matrix(0 1 -1 0 2825 1400)"/><path d="m25 21.87499-10.937496 4.6875 21.874991 9.37499-21.874991 9.375 21.874991 9.37504-21.874991 9.375 21.874991 9.375-10.937495 4.6875" fill="none" stroke="#3b4449" stroke-linecap="round" stroke-miterlimit="6" stroke-width="2" transform="matrix(0 1 -1 0 2825 1400)"/><path d="m12 20h26v60h-26z" fill="#fff" opacity="0" stroke="#fff" transform="matrix(0 1 -1 0 2825 1400)"/><text style="font:10px &quot;Arial&quot;;fill:#3b4449;text-anchor:middle;font-weight:bold;font-size:16;font-family:Arial" transform="translate(2775 1462.95)"><tspan dy="-2.4">R2</tspan><tspan dy="19.2" x="0">680 Ω</tspan></text><circle cx="2825" cy="1425" fill="#999" opacity="0" r="5" stroke="#3b4449" stroke-width="2"/><circle cx="2725" cy="1425" fill="#999" opacity="0" r="5" stroke="#3b4449" stroke-width="2"/><path d="m25 54.68752v45.31248" fill="none" stroke="#3b4449" stroke-linecap="round" stroke-miterlimit="6" stroke-width="2" transform="matrix(0 1 -1 0 2825 1500)"/><path d="m25 45.31249v-45.31249" fill="none" stroke="#3b4449" stroke-linecap="round" stroke-miterlimit="6" stroke-width="2" transform="matrix(0 1 -1 0 2825 1500)"/><path d="m50 45.31249h-50" fill="none" stroke="#3b4449" stroke-linecap="round" stroke-miterlimit="6" stroke-width="2" transform="matrix(0 1 -1 0 2825 1500)"/><path d="m50 54.68752h-50" fill="none" stroke="#3b4449" stroke-linecap="round" stroke-miterlimit="6" stroke-width="2" transform="matrix(0 1 -1 0 2825 1500)"/><path d="m10 10h30v80h-30z" fill="#fff" opacity="0" stroke="#fff" transform="matrix(0 1 -1 0 2825 1500)"/><text style="font:10px &quot;Arial&quot;;fill:#3b4449;text-anchor:middle;font-weight:bold;font-size:16;font-family:Arial" transform="translate(2775 1575.45)"><tspan dy="-2.4">C2</tspan><tspan dy="19.2" x="0">100 nF</tspan></text><circle cx="2825" cy="1525" fill="#999" opacity="0" r="5" stroke="#3b4449" stroke-width="2"/><circle cx="2725" cy="1525" fill="#999" opacity="0" r="5" stroke="#3b4449" stroke-width="2"/><path d="m10.93749 25 14.06251 25 14.06251-25" fill="#3b4449" transform="translate(2300 1550)"/><path d="m25 25v-25" fill="none" stroke="#3b4449" stroke-linecap="round" stroke-miterlimit="6" stroke-width="2" transform="translate(2300 1550)"/><path d="m25 50v25" fill="none" stroke="#3b4449" stroke-linecap="round" stroke-miterlimit="6" stroke-width="2" transform="translate(2300 1550)"/><path d="m10.93749 50h28.12502" fill="none" stroke="#3b4449" stroke-linecap="round" stroke-miterlimit="6" stroke-width="2" transform="translate(2300 1550)"/><path d="m11.930008 15.430008h59.139987v44.139984h-59.139987z" fill="#fff" opacity="0" stroke="#fff" stroke-width=".860016" transform="translate(2300 1550)"/><path d="m66.94993 57.92282c-8.28749-2.7625-9.94374-4.4186-19.88749-11.0478 6.62916 9.9437 8.28541 11.6 11.04791 19.8875 2.21042-4.4188 4.42083-6.6292 8.83958-8.8397" fill="#3b4449" transform="translate(2300 1550)"/><path d="m73.62493 71.09362-12.5-12.5" fill="none" stroke="#3b4449" stroke-linecap="round" stroke-miterlimit="6" stroke-width="2" transform="translate(2300 1550)"/><path d="m66.94993 39.17282c-8.28749-2.7625-9.94374-4.4186-19.88749-11.0478 6.62916 9.9437 8.28541 11.6 11.04791 19.8875 2.21042-4.4188 4.42083-6.6292 8.83958-8.8397" fill="#3b4449" transform="translate(2300 1550)"/><path d="m59.56243 40.62502 12.5 12.5" fill="none" stroke="#3b4449" stroke-linecap="round" stroke-miterlimit="6" stroke-width="2" transform="translate(2300 1550)"/><text style="font:10px &quot;Arial&quot;;fill:#3b4449;text-anchor:end;font-weight:bold;font-size:16;font-family:Arial" transform="translate(2306.25 1587.5)"><tspan dy="7.2">D2</tspan></text><circle cx="2325" cy="1550" fill="#999" opacity="0" r="5" stroke="#3b4449" stroke-width="2"/><circle cx="2325" cy="1625" fill="#999" opacity="0" r="5" stroke="#3b4449" stroke-width="2"/><path d="m10.93749 25 14.06251 25 14.06251-25" fill="#3b4449" transform="translate(2200 1550)"/><path d="m25 25v-25" fill="none" stroke="#3b4449" stroke-linecap="round" stroke-miterlimit="6" stroke-width="2" transform="translate(2200 1550)"/><path d="m25 50v25" fill="none" stroke="#3b4449" stroke-linecap="round" stroke-miterlimit="6" stroke-width="2" transform="translate(2200 1550)"/><path d="m10.93749 50h28.12502" fill="none" stroke="#3b4449" stroke-linecap="round" stroke-miterlimit="6" stroke-width="2" transform="translate(2200 1550)"/><path d="m11.930008 15.430008h59.139987v44.139984h-59.139987z" fill="#fff" opacity="0" stroke="#fff" stroke-width=".860016" transform="translate(2200 1550)"/><path d="m54.17498 60.82702c8.287497 2.7625 9.943746 4.4188 19.887492 11.048-6.629164-9.9438-8.285413-11.6-11.047912-19.8875-2.210416 4.4187-4.420832 6.6292-8.83958 8.8395" fill="#3b4449" transform="translate(2200 1550)"/><path d="m49.062482 46.87502 12.499994 12.5" fill="none" stroke="#3b4449" stroke-linecap="round" stroke-miterlimit="6" stroke-width="2" transform="translate(2200 1550)"/><path d="m54.17498 42.07702c8.287497 2.7625 9.943746 4.4188 19.887492 11.048-6.629164-9.9438-8.285413-11.6-11.047912-19.8875-2.210416 4.4187-4.420832 6.6292-8.83958 8.8395" fill="#3b4449" transform="translate(2200 1550)"/><path d="m49.062482 28.12502 12.499994 12.5" fill="none" stroke="#3b4449" stroke-linecap="round" stroke-miterlimit="6" stroke-width="2" transform="translate(2200 1550)"/><text style="font:10px &quot;Arial&quot;;fill:#3b4449;text-anchor:end;font-weight:bold;font-size:16;font-family:Arial" transform="translate(2206.25 1587.5)"><tspan dy="-2.4">D1</tspan><tspan dy="19.2" x="0">LTL-307EE</tspan></text><circle cx="2225" cy="1550" fill="#999" opacity="0" r="5" stroke="#3b4449" stroke-width="2"/><circle cx="2225" cy="1625" fill="#999" opacity="0" r="5" stroke="#3b4449" stroke-width="2"/><path d="m50 50c0-13.80626-11.193745-25-25-25-13.806245 0-25 11.19374-25 25 0 13.80632 11.193755 25 25 25 13.806255 0 25-11.19368 25-25" fill="#fff" stroke="#3b4449" stroke-linecap="round" stroke-miterlimit="6" stroke-width="2" transform="translate(2275 1150)"/><path d="m25 0v25" fill="none" stroke="#3b4449" stroke-linecap="round" stroke-miterlimit="6" stroke-width="2" transform="translate(2275 1150)"/><path d="m25 100.00002v-25.00002" fill="none" stroke="#3b4449" stroke-linecap="round" stroke-miterlimit="6" stroke-width="2" transform="translate(2275 1150)"/><path d="m25.84227 33.168h-1.684533v7.32006h-7.258805v1.68453h7.258805v7.32003h1.684533v-7.32003h7.258806v-1.68453h-7.258806z" fill="#3b4449" transform="translate(2275 1150)"/><path d="m17.006089 60.39372v1.6845h16.049004v-1.6845z" fill="#3b4449" transform="translate(2275 1150)"/><text fill="#3b4449" font="10px &quot;Arial&quot;" font-family="Arial" font-size="16" font-weight="bold" transform="translate(2331.25 1200)"><tspan dy="-2.4">V1</tspan><tspan dy="19.2" x="0">9 V</tspan></text><circle cx="2300" cy="1150" fill="#999" opacity="0" r="5" stroke="#3b4449" stroke-width="2"/><circle cx="2300" cy="1250" fill="#999" opacity="0" r="5" stroke="#3b4449" stroke-width="2"/><path d="m25 21.87499v-21.87499" fill="none" stroke="#3b4449" stroke-linecap="round" stroke-miterlimit="6" stroke-width="2" transform="translate(2425 1350)"/><path d="m25 78.12502v21.87498" fill="none" stroke="#3b4449" stroke-linecap="round" stroke-miterlimit="6" stroke-width="2" transform="translate(2425 1350)"/><path d="m25 21.87499-10.937496 4.6875 21.874991 9.37499-21.874991 9.375 21.874991 9.37504-21.874991 9.375 21.874991 9.375-10.937495 4.6875" fill="none" stroke="#3b4449" stroke-linecap="round" stroke-miterlimit="6" stroke-width="2" transform="translate(2425 1350)"/><path d="m12 20h26v60h-26z" fill="#fff" opacity="0" stroke="#fff" transform="translate(2425 1350)"/><text fill="#3b4449" font="10px &quot;Arial&quot;" font-family="Arial" font-size="16" font-weight="bold" transform="translate(2468.75 1400)"><tspan dy="-2.4">R1</tspan><tspan dy="19.2" x="0">47 kΩ</tspan></text><circle cx="2450" cy="1350" fill="#999" opacity="0" r="5" stroke="#3b4449" stroke-width="2"/><circle cx="2450" cy="1450" fill="#999" opacity="0" r="5" stroke="#3b4449" stroke-width="2"/><path d="m2450 1300h100" fill="none" stroke="#3b4449" stroke-linecap="round" stroke-width="2"/><path d="m2450 1297h100v10h-100z" fill="#fff" opacity="0" r="0" stroke="#000"/><circle cx="2450" cy="1300" fill="#999" opacity="0" r="5" stroke="#3b4449" stroke-width="2"/><circle cx="2550" cy="1300" fill="#999" opacity="0" r="5" stroke="#3b4449" stroke-width="2"/><path d="m137.5 75-125-62.5v125z" fill="#fff" stroke="#3b4449" stroke-linecap="round" stroke-miterlimit="6" stroke-width="2" transform="matrix(1 0 0 -1 2550 1400)"/><path d="m20.241317 49.30424v1.6958h16.156219v-1.6958z" fill="#3b4449" transform="matrix(1 0 0 -1 2550 1400)"/><path d="m29.136487 91.78334h-1.695786v7.36898h-7.307297v1.6958h7.307297v7.3689h1.695786v-7.3689h7.307298v-1.6958h-7.307298z" fill="#3b4449" transform="matrix(1 0 0 -1 2550 1400)"/><path d="m150 75h-12.5" fill="none" stroke="#3b4449" stroke-linecap="round" stroke-miterlimit="6" stroke-width="2" transform="matrix(1 0 0 -1 2550 1400)"/><path d="m0 100h12.5" fill="none" stroke="#3b4449" stroke-linecap="round" stroke-miterlimit="6" stroke-width="2" transform="matrix(1 0 0 -1 2550 1400)"/><path d="m12.5 50h-12.5" fill="none" stroke="#3b4449" stroke-linecap="round" stroke-miterlimit="6" stroke-width="2" transform="matrix(1 0 0 -1 2550 1400)"/><path d="m75 106.5v18.5" fill="none" stroke="#3b4449" stroke-linecap="round" stroke-miterlimit="6" stroke-width="2" transform="matrix(1 0 0 -1 2550 1400)"/><path d="m75 25v18.5" fill="none" stroke="#3b4449" stroke-linecap="round" stroke-miterlimit="6" stroke-width="2" transform="matrix(1 0 0 -1 2550 1400)"/><text fill="#3b4449" font="10px &quot;Arial&quot;" font-family="Arial" font-size="16" font-weight="bold" transform="translate(2587.5 1325)"><tspan dy="-2.4">OA1</tspan><tspan dy="19.2" x="0">LM358</tspan></text><circle cx="2550" cy="1350" fill="#999" opacity="0" r="5" stroke="#3b4449" stroke-width="2"/><circle cx="2550" cy="1300" fill="#999" opacity="0" r="5" stroke="#3b4449" stroke-width="2"/><circle cx="2700" cy="1325" fill="#999" opacity="0" r="5" stroke="#3b4449" stroke-width="2"/><circle cx="2625" cy="1375" fill="#999" opacity="0" r="5" stroke="#3b4449" stroke-width="2"/><circle cx="2625" cy="1275" fill="#999" opacity="0" r="5" stroke="#3b4449" stroke-width="2"/><path d="m2850 1525v-200" fill="none" stroke="#3b4449" stroke-linecap="round" stroke-width="2"/><path d="m2845 1325h10v200h-10z" fill="#fff" opacity="0" r="0" stroke="#000"/><circle cx="2850" cy="1525" fill="#999" opacity="0" r="5" stroke="#3b4449" stroke-width="2"/><circle cx="2850" cy="1325" fill="#3b4449" r="3" stroke="#3b4449"/><circle cx="2850" cy="1325" fill="#999" opacity="0" r="5" stroke="#3b4449" stroke-width="2"/><path d="m2825 1425h25" fill="none" stroke="#3b4449" stroke-linecap="round" stroke-width="2"/><path d="m2825 1422h25v10h-25z" fill="#fff" opacity="0" r="0" stroke="#000"/><circle cx="2825" cy="1425" fill="#999" opacity="0" r="5" stroke="#3b4449" stroke-width="2"/><circle cx="2850" cy="1425" fill="#3b4449" r="3" stroke="#3b4449"/><circle cx="2850" cy="1425" fill="#999" r="5" stroke="#3b4449" stroke-width="2"/><path d="m2625 1150h-325" fill="none" stroke="#3b4449" stroke-linecap="round" stroke-width="2"/><path d="m2300 1147h325v10h-325z" fill="#fff" opacity="0" r="0" stroke="#000"/><circle cx="2625" cy="1150" fill="#999" opacity="0" r="5" stroke="#3b4449" stroke-width="2"/><circle cx="2300" cy="1150" fill="#999" opacity="0" r="5" stroke="#3b4449" stroke-width="2"/><path d="m25 54.68752v45.31248" fill="none" stroke="#3b4449" stroke-linecap="round" stroke-miterlimit="6" stroke-width="2" transform="matrix(0 1 -1 0 2425 1275)"/><path d="m25 45.31249v-45.31249" fill="none" stroke="#3b4449" stroke-linecap="round" stroke-miterlimit="6" stroke-width="2" transform="matrix(0 1 -1 0 2425 1275)"/><path d="m50 45.31249h-50" fill="none" stroke="#3b4449" stroke-linecap="round" stroke-miterlimit="6" stroke-width="2" transform="matrix(0 1 -1 0 2425 1275)"/><path d="m50 54.68752h-50" fill="none" stroke="#3b4449" stroke-linecap="round" stroke-miterlimit="6" stroke-width="2" transform="matrix(0 1 -1 0 2425 1275)"/><path d="m10 10h30v80h-30z" fill="#fff" opacity="0" stroke="#fff" transform="matrix(0 1 -1 0 2425 1275)"/><text style="font:10px &quot;Arial&quot;;fill:#3b4449;text-anchor:middle;font-weight:bold;font-size:16;font-family:Arial" transform="translate(2375 1350.45)"><tspan dy="-2.4">C1</tspan><tspan dy="19.2" x="0">4.7 µF</tspan></text><circle cx="2425" cy="1300" fill="#3b4449" r="3" stroke="#3b4449"/><circle cx="2425" cy="1300" fill="#999" opacity="0" r="5" stroke="#3b4449" stroke-width="2"/><circle cx="2325" cy="1300" fill="#999" opacity="0" r="5" stroke="#3b4449" stroke-width="2"/><path d="m25 21.87499v-21.87499" fill="none" stroke="#3b4449" stroke-linecap="round" stroke-miterlimit="6" stroke-width="2" transform="translate(2300 1375)"/><path d="m25 78.12502v21.87498" fill="none" stroke="#3b4449" stroke-linecap="round" stroke-miterlimit="6" stroke-width="2" transform="translate(2300 1375)"/><path d="m25 21.87499-10.937496 4.6875 21.874991 9.37499-21.874991 9.375 21.874991 9.37504-21.874991 9.375 21.874991 9.375-10.937495 4.6875" fill="none" stroke="#3b4449" stroke-linecap="round" stroke-miterlimit="6" stroke-width="2" transform="translate(2300 1375)"/><path d="m12 20h26v60h-26z" fill="#fff" opacity="0" stroke="#fff" transform="translate(2300 1375)"/><text fill="#3b4449" font="10px &quot;Arial&quot;" font-family="Arial" font-size="16" font-weight="bold" transform="translate(2343.75 1425)"><tspan dy="-2.4">R5</tspan><tspan dy="19.2" x="0">10 kΩ</tspan></text><circle cx="2325" cy="1375" fill="#3b4449" r="3" stroke="#3b4449"/><circle cx="2325" cy="1375" fill="#999" opacity="0" r="5" stroke="#3b4449" stroke-width="2"/><circle cx="2325" cy="1475" fill="#999" opacity="0" r="5" stroke="#3b4449" stroke-width="2"/><path d="m2225 1475v75" fill="none" stroke="#3b4449" stroke-linecap="round" stroke-width="2"/><path d="m2220 1475h10v75h-10z" fill="#fff" opacity="0" r="0" stroke="#000"/><circle cx="2225" cy="1475" fill="#999" opacity="0" r="5" stroke="#3b4449" stroke-width="2"/><circle cx="2225" cy="1550" fill="#999" opacity="0" r="5" stroke="#3b4449" stroke-width="2"/></g></svg>